<?xml version="1.0" encoding="UTF-8" standalone="no"?>

<svg
   xmlns:dc="http://purl.org/dc/elements/1.1/"
   xmlns:cc="http://creativecommons.org/ns#"
   xmlns:rdf="http://www.w3.org/1999/02/22-rdf-syntax-ns#"
   xmlns:svg="http://www.w3.org/2000/svg"
   xmlns="http://www.w3.org/2000/svg"
   xmlns:sodipodi="http://sodipodi.sourceforge.net/DTD/sodipodi-0.dtd"
   xmlns:inkscape="http://www.inkscape.org/namespaces/inkscape"
   width="100%"
   height="100%"
   viewBox="0 0 168.56552 168.57126"
   id="svg4796"
   version="1.1"
   inkscape:version="0.91 r13725"
   sodipodi:docname="SKOS.svg">
   <style>
<!--         svg * {
            transition: fill .5s ease-out, opacity .5s ease-out;
        }
        @media all and (max-width: 30px) {
            #g4186, #g4166, #g4146 {
                opacity: 0;
            }
        } -->
    </style>
  <defs
     id="defs4798">
    <clipPath
       clipPathUnits="userSpaceOnUse"
       id="clipPath4210">
      <path
         d="M 135.576,498.81 C 111.307,486.653 90.656,470.86 72.033,453.032 l 0,0 c -4.597,-4.472 -5.98,-13.254 -3.035,-19.17 l 0,0 c 12.038,-23.601 26.538,-45.368 45.199,-64.044 l 0,0 c 4.707,-4.629 13.609,-5.689 19.301,-2.527 l 0,0 c 22.838,12.863 44.702,27.16 64.086,45.107 l 0,0 c 4.81,4.504 6.146,13.282 3.054,19.047 l 0,0 c -12.568,23.024 -26.941,44.833 -45.142,64.062 l 0,0 c -2.975,3.1 -7.962,4.829 -12.756,4.829 l 0,0 c -2.554,0 -5.053,-0.491 -7.164,-1.526"
         id="path4212"
         inkscape:connector-curvature="0" />
    </clipPath>
    <linearGradient
       x1="0"
       y1="0"
       x2="1"
       y2="0"
       gradientUnits="userSpaceOnUse"
       gradientTransform="matrix(0,149.09912,149.09912,0,161.51416,358.35791)"
       spreadMethod="pad"
       id="linearGradient4198">
      <stop
         style="stop-opacity:1;stop-color:#a7adb1"
         offset="0"
         id="stop4200" />
      <stop
         style="stop-opacity:1;stop-color:#e1e3e4"
         offset="1"
         id="stop4202" />
    </linearGradient>
    <linearGradient
       x1="0"
       y1="0"
       x2="1"
       y2="0"
       gradientUnits="userSpaceOnUse"
       gradientTransform="matrix(32.044098,-123.37225,-123.37225,-32.044083,87.663086,492.5791)"
       spreadMethod="pad"
       id="linearGradient4178">
      <stop
         style="stop-opacity:1;stop-color:#3c444a"
         offset="0"
         id="stop4180" />
      <stop
         style="stop-opacity:1;stop-color:#6d8191"
         offset="1"
         id="stop4182" />
    </linearGradient>
    <linearGradient
       x1="0"
       y1="0"
       x2="1"
       y2="0"
       gradientUnits="userSpaceOnUse"
       gradientTransform="matrix(34.199524,131.66608,131.66608,-34.199524,117.7959,366.94775)"
       spreadMethod="pad"
       id="linearGradient4158">
      <stop
         style="stop-opacity:1;stop-color:#3c444a"
         offset="0"
         id="stop4160" />
      <stop
         style="stop-opacity:1;stop-color:#6d8191"
         offset="1"
         id="stop4162" />
    </linearGradient>
  </defs>
  <sodipodi:namedview
     id="base"
     pagecolor="#ffffff"
     bordercolor="#666666"
     borderopacity="1.0"
     inkscape:pageopacity="0.0"
     inkscape:pageshadow="2"
     inkscape:zoom="1.4"
     inkscape:cx="32.360481"
     inkscape:cy="-6.7522575"
     inkscape:document-units="px"
     inkscape:current-layer="layer1"
     showgrid="false"
     fit-margin-top="0"
     fit-margin-left="0"
     fit-margin-right="0"
     fit-margin-bottom="0"
     inkscape:window-width="1839"
     inkscape:window-height="1177"
     inkscape:window-x="-8"
     inkscape:window-y="-8"
     inkscape:window-maximized="1" />
  <metadata
     id="metadata4801">
    <rdf:RDF>
      <cc:Work
         rdf:about="">
        <dc:format>image/svg+xml</dc:format>
        <dc:type
           rdf:resource="http://purl.org/dc/dcmitype/StillImage" />
        <dc:title></dc:title>
      </cc:Work>
    </rdf:RDF>
  </metadata>
  <g
     inkscape:label="Layer 1"
     inkscape:groupmode="layer"
     id="layer1"
     transform="translate(-241.43152,-119.50515)">
    <g
       transform="matrix(1.25,0,0,-1.25,157.12154,744.92515)"
       id="g4146">
      <g
         id="g4148">
        <g
           id="g4154">
          <g
             id="g4156">
            <path
               d="M 135.576,498.81 C 111.307,486.653 90.656,470.86 72.033,453.032 l 0,0 c -2.963,-2.882 -4.591,-7.555 -4.585,-12.097 l 0,0 c 0.003,-2.505 0.503,-4.97 1.55,-7.073 l 0,0 c 12.038,-23.601 26.538,-45.368 45.199,-64.044 l 0,0 c 2.883,-2.835 7.339,-4.331 11.668,-4.339 l 0,0 c 0.011,0 0.022,0 0.034,0 l 0,0 c 0.006,0 0.014,0 0.021,0 l 0,0 c 2.603,0.003 5.157,0.545 7.292,1.658 l 0,0 c 0.018,0.009 0.035,0.018 0.053,0.028 l 0,0 c 0.042,0.022 0.084,0.044 0.125,0.067 l 0,0 c 0.005,0.002 0.009,0.004 0.013,0.007 l 0,0 c 0.032,0.017 0.064,0.035 0.095,0.052 l 0,0 c 22.838,12.863 44.702,27.16 64.086,45.107 l 0,0 c 3.063,2.868 4.717,7.469 4.716,11.921 l 0,0 c 0,2.54 -0.539,5.032 -1.662,7.126 l 0,0 c -12.568,23.024 -26.941,44.833 -45.142,64.062 l 0,0 c -0.356,0.37 -0.741,0.721 -1.15,1.052 l 0,0 c -1.79,1.447 -4.058,2.507 -6.489,3.13 l 0,0 c -1.663,0.426 -3.402,0.647 -5.117,0.647 l 0,0 c -2.554,0 -5.053,-0.491 -7.164,-1.526"
               style="fill:url(#linearGradient4158);stroke:none"
               id="path4164"
               inkscape:connector-curvature="0" />
          </g>
        </g>
      </g>
    </g>
    <g
       transform="matrix(1.25,0,0,-1.25,157.12154,744.92515)"
       id="g4166">
      <g
         id="g4168">
        <g
           id="g4174">
          <g
             id="g4176">
            <path
               d="m 72.033,453.032 c -4.597,-4.472 -5.98,-13.254 -3.035,-19.17 l 0,0 c 11.748,-23.032 25.839,-44.316 43.855,-62.687 l 0,0 c 19.056,11.307 37.245,23.887 53.66,39.084 l 0,0 c 4.809,4.503 6.145,13.282 3.052,19.046 l 0,0 c -12.49,22.884 -26.768,44.571 -44.813,63.714 l 0,0 C 105.075,481.804 87.825,468.15 72.033,453.032"
               style="fill:url(#linearGradient4178);stroke:none"
               id="path4184"
               inkscape:connector-curvature="0" />
          </g>
        </g>
      </g>
    </g>
    <g
       transform="matrix(1.25,0,0,-1.25,157.12154,744.92515)"
       id="g4186">
      <g
         id="g4188">
        <g
           id="g4194">
          <g
             id="g4196">
            <path
               d="M 140.781,500.237 C 119.931,481.351 103.363,459.933 89.249,437.07 l 0,0 c -3.644,-6.012 -2.692,-15.71 2.061,-21.175 l 0,0 c 14.854,-16.737 30.959,-31.918 48.982,-44.716 l 0,0 c 20.375,11.859 39.839,25.06 57.292,41.219 l 0,0 c 4.81,4.504 6.146,13.282 3.054,19.047 l 0,0 c -12.568,23.024 -26.941,44.833 -45.142,64.062 l 0,0 c -2.975,3.099 -7.962,4.829 -12.756,4.829 l 0,0 c -0.658,0 -1.313,-0.033 -1.959,-0.099"
               style="fill:url(#linearGradient4198);stroke:none"
               id="path4204"
               inkscape:connector-curvature="0" />
          </g>
        </g>
      </g>
    </g>
    <g
       transform="matrix(1.25,0,0,-1.25,157.12154,744.92515)"
       id="g4206">
      <g
         id="g4208"
         clip-path="url(#clipPath4210)">
        <g
           id="g4214"
           transform="translate(117.4502,442.5571)">
          <path
             d="m 0,0 c 0,0 -3.929,0.473 -5.642,0.473 -2.925,0 -4.608,-1.035 -4.608,-3.545 0,-3.014 1.506,-3.457 5.081,-4.225 3.839,-0.856 5.76,-1.772 5.76,-5.435 0,-4.52 -2.245,-6.204 -6.322,-6.204 -2.245,0 -6.292,0.561 -6.292,0.561 l 0.177,1.684 c 0,0 3.988,-0.502 6.086,-0.502 2.924,0 4.49,1.211 4.49,4.372 0,2.57 -1.271,3.161 -4.608,3.841 -4.166,0.945 -6.234,1.742 -6.234,5.848 0,3.841 2.541,5.377 6.47,5.377 2.274,0 5.79,-0.561 5.79,-0.561 L 0,0 Z"
             style="fill:#5a5a5c;fill-opacity:1;fill-rule:nonzero;stroke:none"
             id="path4216"
             inkscape:connector-curvature="0" />
        </g>
        <g
           id="g4218"
           transform="translate(127.7583,433.1333)">
          <path
             d="m 0,0 -3.574,-0.059 0,-9.217 -1.802,0 0,20.59 1.802,0 0,-9.63 3.515,0.059 5.702,9.571 2.127,0 -6.204,-10.31 6.587,-10.28 -2.185,0 L 0,0 Z"
             style="fill:#5a5a5c;fill-opacity:1;fill-rule:nonzero;stroke:none"
             id="path4220"
             inkscape:connector-curvature="0" />
        </g>
        <g
           id="g4222"
           transform="translate(152.9551,434.0493)">
          <path
             d="m 0,0 c 0,5.701 -1.152,8.951 -6.145,8.951 -5.022,0 -6.114,-3.221 -6.114,-8.951 0,-5.761 1.033,-8.744 6.114,-8.744 C -1.034,-8.744 0,-5.968 0,0 m -14.15,0 c 0,6.765 1.684,10.693 8.005,10.693 6.322,0 8.036,-3.869 8.036,-10.693 0,-7.061 -1.684,-10.487 -8.036,-10.487 -6.351,0 -8.005,3.633 -8.005,10.487"
             style="fill:#5a5a5c;fill-opacity:1;fill-rule:nonzero;stroke:none"
             id="path4224"
             inkscape:connector-curvature="0" />
        </g>
        <g
           id="g4226"
           transform="translate(170.1162,442.5571)">
          <path
             d="m 0,0 c 0,0 -3.929,0.473 -5.642,0.473 -2.925,0 -4.608,-1.035 -4.608,-3.545 0,-3.014 1.506,-3.457 5.081,-4.225 3.839,-0.856 5.76,-1.772 5.76,-5.435 0,-4.52 -2.245,-6.204 -6.322,-6.204 -2.245,0 -6.292,0.561 -6.292,0.561 l 0.177,1.684 c 0,0 3.988,-0.502 6.086,-0.502 2.924,0 4.49,1.211 4.49,4.372 0,2.57 -1.271,3.161 -4.608,3.841 -4.166,0.945 -6.234,1.742 -6.234,5.848 0,3.841 2.541,5.377 6.47,5.377 2.274,0 5.79,-0.561 5.79,-0.561 L 0,0 Z"
             style="fill:#5a5a5c;fill-opacity:1;fill-rule:nonzero;stroke:none"
             id="path4228"
             inkscape:connector-curvature="0" />
        </g>
      </g>
    </g>
  </g>
</svg>
